<svg version="1.1" preserveAspectRatio="none" xmlns="http://www.w3.org/2000/svg" width="500" height="500" viewBox="0 0 500 500"><rect width="100%" height="100%" fill="#FFFFFF" fill-opacity="1"/><svg viewBox="1014.246 648.8463 553.6809 113.8" width="333" height="68.44267158213331" x="83.5px" y="215.7787px" xmlns="http://www.w3.org/2000/svg" xmlns:xlink="http://www.w3.org/1999/xlink" preserveAspectRatio="none"><defs></defs><style>.aIptOCySncolors-3 {fill:#4B4957;fill-opacity:1;}.aIptOCySncolors-4 {fill:#5F5D73;fill-opacity:1;}.aIptOCySncolors-5 {fill:#7D7D96;fill-opacity:1;}.aIptOCySncolors-6 {fill:#C0C0C4;fill-opacity:1;}.aIptOCySncolors-7 {fill:#E1E1E1;fill-opacity:1;}.background {fill:#FFFFFF;fill-opacity:1;}.companyName {fill:#FF6816;fill-opacity:1;}.icon3 {fill:#F1270A;fill-opacity:1;}.icon3-str {stroke:#F1270A;stroke-opacity:1;}.shape {fill:#F4F4F9;fill-opacity:1;}.shapeStroke-str {stroke:#FF6816;stroke-opacity:1;}.text {fill:#FF6816;fill-opacity:1;}</style><g opacity="1" transform="rotate(0 1053.5609 648.8463)">
<svg width="70.0002" height="70" x="1053.5609" y="648.8463" version="1.1" preserveAspectRatio="none" viewBox="0 0 70.0002 70">
  <defs><rect x="0" y="0" width="70.0002" height="70" rx="10px" ry="10px" id="id-5kldYRpCP1737716764409"></rect></defs><use class="companyName shapeStroke-str" style="stroke-width:0;" xlink:href="#id-5kldYRpCP1737716764409"></use>
</svg>
</g><g opacity="1" transform="rotate(0 1068.5609 671.0562)">
<svg width="40.0002" height="25.5802" x="1068.5609" y="671.0562" version="1.1" preserveAspectRatio="none" viewBox="4.345005035400391 14.38699722290039 54.77999496459961 35.03189468383789">
  <g transform="matrix(1 0 0 1 0 0)" class="background"><g><g><path fill-rule="evenodd" clip-rule="evenodd" d="M21.145,32.867c-2.766,2.527-0.007,7.81,3.84,6.72    c1.119-0.316,2.698-2.422,2.16-4.56C26.581,32.787,22.656,32.689,21.145,32.867z M24.745,36.707c-0.655-0.021-0.483,0.4-0.96,0    c-0.179-0.738,0.659-0.461,0.48-1.2C24.79,35.543,24.781,36.112,24.745,36.707z"></path><path fill-rule="evenodd" clip-rule="evenodd" d="M58.825,23.267c-7.824-0.493-15.745-1.239-22.32-0.48    c-1.838-2.085-3.45,0.247-4.8-0.72c0.284,0.035,0.544,0.427,0.72,0c-1.421,0.067-2.653-0.46-3.84,0.72    c-0.163-0.663-0.043-0.547-0.72-0.96c-2.376-0.128-1.337,0.489-3.36,0.48c-2.724,2.751-5.813,4.255-8.16,6.96    c-0.271,0.85,1.009,1.366,0.24,1.92c-0.117-0.283-0.256-0.544-0.48-0.72c-0.097,1.636,0.438,2.479-0.24,3.6    c-8.167,1.975-10.396-9.055-4.56-12c4.282,0.604,10.299-3.451,7.44-7.68c-0.4,0-0.8,0-1.2,0c-1.257,0.87-1.189,2.766-2.4,3.6    c-1.289,0.888-3.38,0.484-4.56,0.96c-2.807,1.132-5.526,3.942-6.24,7.68c0,0.48,0,0.96,0,1.44    c0.556,6.449,4.935,10.202,12.24,9.12c-0.074,2.693,0.826,4.368,0.24,7.439c3.036,1.201,5.273,3.49,8.64,4.32    c4.333,1.068,10.226-0.008,15.84,0c5.858,0.009,11.843,0.599,17.52-0.24C59.225,40.784,59.225,31.19,58.825,23.267z     M56.905,47.027c-3.619,0.183-6.019-0.809-9.36-0.24c-0.553,0.073-0.267-0.693-0.72-0.72c-0.792,0.851-2.709,0.203-3.36,0.479    c1.188-0.337-1.892-1.316-2.159,0c-0.124-0.97-1.297-0.568-2.4,0c0.477-0.553-0.061-0.267-0.24-0.72    c-2.236,0.528-5.725-0.568-8.16,0.96c0.084-0.315,0.422-0.377,0.48-0.72c-5.109,0.783-8.014-1.703-11.28-3.36    c0.078-4.17-0.428-8.472,0.24-12.48c2.009-0.799,4.459-2.997,6.48-4.56c10.681-0.513,19.05-0.703,30.48-0.48    C56.905,32.467,56.905,39.747,56.905,47.027z"></path></g></g></g>
</svg>
</g><g opacity="1" transform="rotate(0 1014.246 738.8463)">
<svg width="553.6809" height="23.8" x="1014.246" y="738.8463" version="1.1" preserveAspectRatio="none" viewBox="1.4 -30.88 905.6400000000001 38.92">
  <g transform="matrix(1 0 0 1 0 0)" class="text"><path id="id-6izo4zJp43" d="M12.44 0.40Q9.20 0.40 6.18-0.52Q3.16-1.44 1.40-2.96L1.40-2.96L3.20-7Q4.92-5.64 7.42-4.78Q9.92-3.92 12.44-3.92L12.44-3.92Q15.56-3.92 17.10-4.92Q18.64-5.92 18.64-7.56L18.64-7.56Q18.64-8.76 17.78-9.54Q16.92-10.32 15.60-10.76Q14.28-11.20 12-11.76L12-11.76Q8.80-12.52 6.82-13.28Q4.84-14.04 3.42-15.66Q2-17.28 2-20.04L2-20.04Q2-22.36 3.26-24.26Q4.52-26.16 7.06-27.28Q9.60-28.40 13.28-28.40L13.28-28.40Q15.84-28.40 18.32-27.76Q20.80-27.12 22.60-25.92L22.60-25.92L20.96-21.88Q19.12-22.96 17.12-23.52Q15.12-24.08 13.24-24.08L13.24-24.08Q10.16-24.08 8.66-23.04Q7.16-22 7.16-20.28L7.16-20.28Q7.16-19.08 8.02-18.32Q8.88-17.56 10.20-17.12Q11.52-16.68 13.80-16.12L13.80-16.12Q16.92-15.40 18.92-14.62Q20.92-13.84 22.34-12.24Q23.76-10.64 23.76-7.92L23.76-7.92Q23.76-5.60 22.50-3.72Q21.24-1.84 18.68-0.72Q16.12 0.40 12.44 0.40L12.44 0.40Z M41.76-21.60Q45.80-21.60 48.24-19.24Q50.68-16.88 50.68-12.24L50.68-12.24L50.68 0L45.68 0L45.68-11.60Q45.68-14.40 44.36-15.82Q43.04-17.24 40.60-17.24L40.60-17.24Q37.84-17.24 36.24-15.58Q34.64-13.92 34.64-10.80L34.64-10.80L34.64 0L29.64 0L29.64-29.68L34.64-29.68L34.64-18.88Q35.88-20.20 37.70-20.90Q39.52-21.60 41.76-21.60L41.76-21.60Z M68.04 0.28Q64.80 0.28 62.20-1.12Q59.60-2.52 58.14-5.02Q56.68-7.52 56.68-10.68L56.68-10.68Q56.68-13.84 58.14-16.32Q59.60-18.80 62.20-20.20Q64.80-21.60 68.04-21.60L68.04-21.60Q71.32-21.60 73.92-20.20Q76.52-18.80 77.98-16.32Q79.44-13.84 79.44-10.68L79.44-10.68Q79.44-7.52 77.98-5.02Q76.52-2.52 73.92-1.12Q71.32 0.28 68.04 0.28L68.04 0.28ZM68.04-4Q70.80-4 72.60-5.84Q74.40-7.68 74.40-10.68L74.40-10.68Q74.40-13.68 72.60-15.52Q70.80-17.36 68.04-17.36L68.04-17.36Q65.28-17.36 63.50-15.52Q61.72-13.68 61.72-10.68L61.72-10.68Q61.72-7.68 63.50-5.84Q65.28-4 68.04-4L68.04-4Z M97.28-21.60Q100.40-21.60 102.86-20.24Q105.32-18.88 106.72-16.40Q108.12-13.92 108.12-10.68L108.12-10.68Q108.12-7.44 106.72-4.94Q105.32-2.44 102.86-1.08Q100.40 0.28 97.28 0.28L97.28 0.28Q92.96 0.28 90.44-2.60L90.44-2.60L90.44 7.76L85.44 7.76L85.44-21.36L90.20-21.36L90.20-18.56Q91.44-20.08 93.26-20.84Q95.08-21.60 97.28-21.60L97.28-21.60ZM96.72-4Q99.48-4 101.26-5.84Q103.04-7.68 103.04-10.68L103.04-10.68Q103.04-13.68 101.26-15.52Q99.48-17.36 96.72-17.36L96.72-17.36Q94.92-17.36 93.48-16.54Q92.04-15.72 91.20-14.20Q90.36-12.68 90.36-10.68L90.36-10.68Q90.36-8.68 91.20-7.16Q92.04-5.64 93.48-4.82Q94.92-4 96.72-4L96.72-4Z M135-23.64L119.76-23.64L119.76-15.12L133.28-15.12L133.28-10.72L119.76-10.72L119.76 0L114.56 0L114.56-28L135-28L135-23.64Z M140.36 0L140.36-21.36L145.36-21.36L145.36 0L140.36 0ZM142.88-24.88Q141.52-24.88 140.60-25.74Q139.68-26.60 139.68-27.88L139.68-27.88Q139.68-29.16 140.60-30.02Q141.52-30.88 142.88-30.88L142.88-30.88Q144.24-30.88 145.16-30.06Q146.08-29.24 146.08-28L146.08-28Q146.08-26.68 145.18-25.78Q144.28-24.88 142.88-24.88L142.88-24.88Z M165.24-21.60Q169.28-21.60 171.72-19.24Q174.16-16.88 174.16-12.24L174.16-12.24L174.16 0L169.16 0L169.16-11.60Q169.16-14.40 167.84-15.82Q166.52-17.24 164.08-17.24L164.08-17.24Q161.32-17.24 159.72-15.58Q158.12-13.92 158.12-10.80L158.12-10.80L158.12 0L153.12 0L153.12-21.36L157.88-21.36L157.88-18.60Q159.12-20.08 161.00-20.84Q162.88-21.60 165.24-21.60L165.24-21.60Z M181.72 0L181.72-21.36L186.72-21.36L186.72 0L181.72 0ZM184.24-24.88Q182.88-24.88 181.96-25.74Q181.04-26.60 181.04-27.88L181.04-27.88Q181.04-29.16 181.96-30.02Q182.88-30.88 184.24-30.88L184.24-30.88Q185.60-30.88 186.52-30.06Q187.44-29.24 187.44-28L187.44-28Q187.44-26.68 186.54-25.78Q185.64-24.88 184.24-24.88L184.24-24.88Z M205.92-4.72L207.32-1.16Q206.44-0.44 205.18-0.08Q203.92 0.28 202.52 0.28L202.52 0.28Q199.00 0.28 197.08-1.56Q195.16-3.40 195.16-6.92L195.16-6.92L195.16-17.20L191.64-17.20L191.64-21.20L195.16-21.20L195.16-26.08L200.16-26.08L200.16-21.20L205.88-21.20L205.88-17.20L200.16-17.20L200.16-7.04Q200.16-5.48 200.92-4.66Q201.68-3.84 203.12-3.84L203.12-3.84Q204.80-3.84 205.92-4.72L205.92-4.72Z M227.44-21.36L232.24-21.36L222.24 1.72Q220.84 5.20 218.84 6.62Q216.84 8.04 214.00 8.04L214.00 8.04Q212.40 8.04 210.84 7.52Q209.28 7 208.28 6.08L208.28 6.08L210.28 2.40Q211.00 3.08 211.98 3.48Q212.96 3.88 213.96 3.88L213.96 3.88Q215.28 3.88 216.14 3.20Q217.00 2.52 217.72 0.92L217.72 0.92L218.08 0.08L208.76-21.36L213.96-21.36L220.68-5.56L227.44-21.36Z M238.36-14.96Q237.00-14.96 236.04-15.90Q235.08-16.84 235.08-18.28L235.08-18.28Q235.08-19.76 236.02-20.68Q236.96-21.60 238.36-21.60L238.36-21.60Q239.76-21.60 240.70-20.68Q241.64-19.76 241.64-18.28L241.64-18.28Q241.64-16.84 240.68-15.90Q239.72-14.96 238.36-14.96L238.36-14.96ZM238.36 0.28Q237.00 0.28 236.04-0.66Q235.08-1.60 235.08-3.04L235.08-3.04Q235.08-4.52 236.02-5.44Q236.96-6.36 238.36-6.36L238.36-6.36Q239.76-6.36 240.70-5.44Q241.64-4.52 241.64-3.04L241.64-3.04Q241.64-1.60 240.68-0.66Q239.72 0.28 238.36 0.28L238.36 0.28Z M265.64-4.36L281.44-4.36L281.44 0L260.44 0L260.44-28L280.88-28L280.88-23.64L265.64-23.64L265.64-16.36L279.16-16.36L279.16-12.08L265.64-12.08L265.64-4.36Z M300.08-21.60Q304.12-21.60 306.56-19.24Q309.00-16.88 309.00-12.24L309.00-12.24L309.00 0L304.00 0L304.00-11.60Q304.00-14.40 302.68-15.82Q301.36-17.24 298.92-17.24L298.92-17.24Q296.16-17.24 294.56-15.58Q292.96-13.92 292.96-10.80L292.96-10.80L292.96 0L287.96 0L287.96-21.36L292.72-21.36L292.72-18.60Q293.96-20.08 295.84-20.84Q297.72-21.60 300.08-21.60L300.08-21.60Z M332.68-29.68L337.68-29.68L337.68 0L332.88 0L332.88-2.76Q331.64-1.24 329.82-0.48Q328.00 0.28 325.80 0.28L325.80 0.28Q322.72 0.28 320.26-1.08Q317.80-2.44 316.40-4.94Q315.00-7.44 315.00-10.68L315.00-10.68Q315.00-13.92 316.40-16.40Q317.80-18.88 320.26-20.24Q322.72-21.60 325.80-21.60L325.80-21.60Q327.92-21.60 329.68-20.88Q331.44-20.16 332.68-18.72L332.68-18.72L332.68-29.68ZM326.40-4Q328.20-4 329.64-4.82Q331.08-5.64 331.92-7.16Q332.76-8.68 332.76-10.68L332.76-10.68Q332.76-12.68 331.92-14.20Q331.08-15.72 329.64-16.54Q328.20-17.36 326.40-17.36L326.40-17.36Q324.60-17.36 323.16-16.54Q321.72-15.72 320.88-14.20Q320.04-12.68 320.04-10.68L320.04-10.68Q320.04-8.68 320.88-7.16Q321.72-5.64 323.16-4.82Q324.60-4 326.40-4L326.40-4Z M345.44 0L345.44-29.68L350.44-29.68L350.44 0L345.44 0Z M378.28-10.56Q378.28-10.04 378.20-9.08L378.20-9.08L361.44-9.08Q361.88-6.72 363.74-5.34Q365.60-3.96 368.36-3.96L368.36-3.96Q371.88-3.96 374.16-6.28L374.16-6.28L376.84-3.20Q375.40-1.48 373.20-0.60Q371.00 0.28 368.24 0.28L368.24 0.28Q364.72 0.28 362.04-1.12Q359.36-2.52 357.90-5.02Q356.44-7.52 356.44-10.68L356.44-10.68Q356.44-13.80 357.86-16.30Q359.28-18.80 361.80-20.20Q364.32-21.60 367.48-21.60L367.48-21.60Q370.60-21.60 373.06-20.22Q375.52-18.84 376.90-16.34Q378.28-13.84 378.28-10.56L378.28-10.56ZM367.48-17.60Q365.08-17.60 363.42-16.18Q361.76-14.76 361.40-12.40L361.40-12.40L373.52-12.40Q373.20-14.72 371.56-16.16Q369.92-17.60 367.48-17.60L367.48-17.60Z M390.88 0.28Q388.28 0.28 385.80-0.40Q383.32-1.08 381.84-2.12L381.84-2.12L383.76-5.92Q385.20-4.96 387.22-4.38Q389.24-3.80 391.20-3.80L391.20-3.80Q395.68-3.80 395.68-6.16L395.68-6.16Q395.68-7.28 394.54-7.72Q393.40-8.16 390.88-8.56L390.88-8.56Q388.24-8.96 386.58-9.48Q384.92-10 383.70-11.30Q382.48-12.60 382.48-14.92L382.48-14.92Q382.48-17.96 385.02-19.78Q387.56-21.60 391.88-21.60L391.88-21.60Q394.08-21.60 396.28-21.10Q398.48-20.60 399.88-19.76L399.88-19.76L397.96-15.96Q395.24-17.56 391.84-17.56L391.84-17.56Q389.64-17.56 388.50-16.90Q387.36-16.24 387.36-15.16L387.36-15.16Q387.36-13.96 388.58-13.46Q389.80-12.96 392.36-12.52L392.36-12.52Q394.92-12.12 396.56-11.60Q398.20-11.08 399.38-9.84Q400.56-8.60 400.56-6.32L400.56-6.32Q400.56-3.32 397.96-1.52Q395.36 0.28 390.88 0.28L390.88 0.28Z M412.68 0.28Q410.08 0.28 407.60-0.40Q405.12-1.08 403.64-2.12L403.64-2.12L405.56-5.92Q407.00-4.96 409.02-4.38Q411.04-3.80 413.00-3.80L413.00-3.80Q417.48-3.80 417.48-6.16L417.48-6.16Q417.48-7.28 416.34-7.72Q415.20-8.16 412.68-8.56L412.68-8.56Q410.04-8.96 408.38-9.48Q406.72-10 405.50-11.30Q404.28-12.60 404.28-14.92L404.28-14.92Q404.28-17.96 406.82-19.78Q409.36-21.60 413.68-21.60L413.68-21.60Q415.88-21.60 418.08-21.10Q420.28-20.60 421.68-19.76L421.68-19.76L419.76-15.96Q417.04-17.56 413.64-17.56L413.64-17.56Q411.44-17.56 410.30-16.90Q409.16-16.24 409.16-15.16L409.16-15.16Q409.16-13.96 410.38-13.46Q411.60-12.96 414.16-12.52L414.16-12.52Q416.72-12.12 418.36-11.60Q420.00-11.08 421.18-9.84Q422.36-8.60 422.36-6.32L422.36-6.32Q422.36-3.32 419.76-1.52Q417.16 0.28 412.68 0.28L412.68 0.28Z M453.56 0.40Q449.32 0.40 445.90-1.46Q442.48-3.32 440.54-6.60Q438.60-9.88 438.60-14L438.60-14Q438.60-18.12 440.56-21.40Q442.52-24.68 445.94-26.54Q449.36-28.40 453.60-28.40L453.60-28.40Q457.04-28.40 459.88-27.20Q462.72-26 464.68-23.72L464.68-23.72L461.32-20.56Q458.28-23.84 453.84-23.84L453.84-23.84Q450.96-23.84 448.68-22.58Q446.40-21.32 445.12-19.08Q443.84-16.84 443.84-14L443.84-14Q443.84-11.16 445.12-8.92Q446.40-6.68 448.68-5.42Q450.96-4.16 453.84-4.16L453.84-4.16Q458.28-4.16 461.32-7.48L461.32-7.48L464.68-4.28Q462.72-2 459.86-0.80Q457.00 0.40 453.56 0.40L453.56 0.40Z M482.52-21.60Q486.56-21.60 489.00-19.24Q491.44-16.88 491.44-12.24L491.44-12.24L491.44 0L486.44 0L486.44-11.60Q486.44-14.40 485.12-15.82Q483.80-17.24 481.36-17.24L481.36-17.24Q478.60-17.24 477.00-15.58Q475.40-13.92 475.40-10.80L475.40-10.80L475.40 0L470.40 0L470.40-29.68L475.40-29.68L475.40-18.88Q476.64-20.20 478.46-20.90Q480.28-21.60 482.52-21.60L482.52-21.60Z M508.80 0.28Q505.56 0.28 502.96-1.12Q500.36-2.52 498.90-5.02Q497.44-7.52 497.44-10.68L497.44-10.68Q497.44-13.84 498.90-16.32Q500.36-18.80 502.96-20.20Q505.56-21.60 508.80-21.60L508.80-21.60Q512.08-21.60 514.68-20.20Q517.28-18.80 518.74-16.32Q520.20-13.84 520.20-10.68L520.20-10.68Q520.20-7.52 518.74-5.02Q517.28-2.52 514.68-1.12Q512.08 0.28 508.80 0.28L508.80 0.28ZM508.80-4Q511.56-4 513.36-5.84Q515.16-7.68 515.16-10.68L515.16-10.68Q515.16-13.68 513.36-15.52Q511.56-17.36 508.80-17.36L508.80-17.36Q506.04-17.36 504.26-15.52Q502.48-13.68 502.48-10.68L502.48-10.68Q502.48-7.68 504.26-5.84Q506.04-4 508.80-4L508.80-4Z M526.20 0L526.20-21.36L531.20-21.36L531.20 0L526.20 0ZM528.72-24.88Q527.36-24.88 526.44-25.74Q525.52-26.60 525.52-27.88L525.52-27.88Q525.52-29.16 526.44-30.02Q527.36-30.88 528.72-30.88L528.72-30.88Q530.08-30.88 531.00-30.06Q531.92-29.24 531.92-28L531.92-28Q531.92-26.68 531.02-25.78Q530.12-24.88 528.72-24.88L528.72-24.88Z M548.76 0.28Q545.44 0.28 542.80-1.12Q540.16-2.52 538.68-5.02Q537.20-7.52 537.20-10.68L537.20-10.68Q537.20-13.84 538.68-16.32Q540.16-18.80 542.78-20.20Q545.40-21.60 548.76-21.60L548.76-21.60Q551.92-21.60 554.30-20.32Q556.68-19.04 557.88-16.64L557.88-16.64L554.04-14.40Q553.12-15.88 551.74-16.62Q550.36-17.36 548.72-17.36L548.72-17.36Q545.92-17.36 544.08-15.54Q542.24-13.72 542.24-10.68L542.24-10.68Q542.24-7.64 544.06-5.82Q545.88-4 548.72-4L548.72-4Q550.36-4 551.74-4.74Q553.12-5.48 554.04-6.96L554.04-6.96L557.88-4.72Q556.64-2.32 554.26-1.02Q551.88 0.28 548.76 0.28L548.76 0.28Z M583.16-10.56Q583.16-10.04 583.08-9.08L583.08-9.08L566.32-9.08Q566.76-6.72 568.62-5.34Q570.48-3.96 573.24-3.96L573.24-3.96Q576.76-3.96 579.04-6.28L579.04-6.28L581.72-3.20Q580.28-1.48 578.08-0.60Q575.88 0.28 573.12 0.28L573.12 0.28Q569.60 0.28 566.92-1.12Q564.24-2.52 562.78-5.02Q561.32-7.52 561.32-10.68L561.32-10.68Q561.32-13.80 562.74-16.30Q564.16-18.80 566.68-20.20Q569.20-21.60 572.36-21.60L572.36-21.60Q575.48-21.60 577.94-20.22Q580.40-18.84 581.78-16.34Q583.16-13.84 583.16-10.56L583.16-10.56ZM572.36-17.60Q569.96-17.60 568.30-16.18Q566.64-14.76 566.28-12.40L566.28-12.40L578.40-12.40Q578.08-14.72 576.44-16.16Q574.80-17.60 572.36-17.60L572.36-17.60Z M595.76 0.28Q593.16 0.28 590.68-0.40Q588.20-1.08 586.72-2.12L586.72-2.12L588.64-5.92Q590.08-4.96 592.10-4.38Q594.12-3.80 596.08-3.80L596.08-3.80Q600.56-3.80 600.56-6.16L600.56-6.16Q600.56-7.28 599.42-7.72Q598.28-8.16 595.76-8.56L595.76-8.56Q593.12-8.96 591.46-9.48Q589.80-10 588.58-11.30Q587.36-12.60 587.36-14.92L587.36-14.92Q587.36-17.96 589.90-19.78Q592.44-21.60 596.76-21.60L596.76-21.60Q598.96-21.60 601.16-21.10Q603.36-20.60 604.76-19.76L604.76-19.76L602.84-15.96Q600.12-17.56 596.72-17.56L596.72-17.56Q594.52-17.56 593.38-16.90Q592.24-16.24 592.24-15.16L592.24-15.16Q592.24-13.96 593.46-13.46Q594.68-12.96 597.24-12.52L597.24-12.52Q599.80-12.12 601.44-11.60Q603.08-11.08 604.26-9.84Q605.44-8.60 605.44-6.32L605.44-6.32Q605.44-3.32 602.84-1.52Q600.24 0.28 595.76 0.28L595.76 0.28Z M612.60-6.36Q614-6.36 614.92-5.44Q615.84-4.52 615.84-3.04L615.84-3.04Q615.84-2.40 615.66-1.70Q615.48-1 614.92 0.40L614.92 0.40L612.88 6.04L609.64 6.04L611.24-0.08Q610.36-0.44 609.86-1.22Q609.36-2 609.36-3.04L609.36-3.04Q609.36-4.52 610.28-5.44Q611.20-6.36 612.60-6.36L612.60-6.36Z M634.64 0L634.64-28L639.84-28L639.84 0L634.64 0Z M660.24-21.60Q664.28-21.60 666.72-19.24Q669.16-16.88 669.16-12.24L669.16-12.24L669.16 0L664.16 0L664.16-11.60Q664.16-14.40 662.84-15.82Q661.52-17.24 659.08-17.24L659.08-17.24Q656.32-17.24 654.72-15.58Q653.12-13.92 653.12-10.80L653.12-10.80L653.12 0L648.12 0L648.12-21.36L652.88-21.36L652.88-18.60Q654.12-20.08 656-20.84Q657.88-21.60 660.24-21.60L660.24-21.60Z M685.40-25.92Q682.24-25.92 682.24-22.48L682.24-22.48L682.24-21.20L688.12-21.20L688.12-17.20L682.40-17.20L682.40 0L677.40 0L677.40-17.20L673.88-17.20L673.88-21.20L677.40-21.20L677.40-22.56Q677.40-26 679.40-27.98Q681.40-29.96 685.04-29.96L685.04-29.96Q687.92-29.96 689.56-28.80L689.56-28.80L688.16-25.04Q686.88-25.92 685.40-25.92L685.40-25.92Z M695.88 0L695.88-21.36L700.88-21.36L700.88 0L695.88 0ZM698.40-24.88Q697.04-24.88 696.12-25.74Q695.20-26.60 695.20-27.88L695.20-27.88Q695.20-29.16 696.12-30.02Q697.04-30.88 698.40-30.88L698.40-30.88Q699.76-30.88 700.68-30.06Q701.60-29.24 701.60-28L701.60-28Q701.60-26.68 700.70-25.78Q699.80-24.88 698.40-24.88L698.40-24.88Z M720.76-21.60Q724.80-21.60 727.24-19.24Q729.68-16.88 729.68-12.24L729.68-12.24L729.68 0L724.68 0L724.68-11.60Q724.68-14.40 723.36-15.82Q722.04-17.24 719.60-17.24L719.60-17.24Q716.84-17.24 715.24-15.58Q713.64-13.92 713.64-10.80L713.64-10.80L713.64 0L708.64 0L708.64-21.36L713.40-21.36L713.40-18.60Q714.64-20.08 716.52-20.84Q718.40-21.60 720.76-21.60L720.76-21.60Z M737.24 0L737.24-21.36L742.24-21.36L742.24 0L737.24 0ZM739.76-24.88Q738.40-24.88 737.48-25.74Q736.56-26.60 736.56-27.88L736.56-27.88Q736.56-29.16 737.48-30.02Q738.40-30.88 739.76-30.88L739.76-30.88Q741.12-30.88 742.04-30.06Q742.96-29.24 742.96-28L742.96-28Q742.96-26.68 742.06-25.78Q741.16-24.88 739.76-24.88L739.76-24.88Z M761.44-4.72L762.84-1.16Q761.96-0.44 760.70-0.08Q759.44 0.28 758.04 0.28L758.04 0.28Q754.52 0.28 752.60-1.56Q750.68-3.40 750.68-6.92L750.68-6.92L750.68-17.20L747.16-17.20L747.16-21.20L750.68-21.20L750.68-26.08L755.68-26.08L755.68-21.20L761.40-21.20L761.40-17.20L755.68-17.20L755.68-7.04Q755.68-5.48 756.44-4.66Q757.20-3.84 758.64-3.84L758.64-3.84Q760.32-3.84 761.44-4.72L761.44-4.72Z M787.52-10.56Q787.52-10.04 787.44-9.08L787.44-9.08L770.68-9.08Q771.12-6.72 772.98-5.34Q774.84-3.96 777.60-3.96L777.60-3.96Q781.12-3.96 783.40-6.28L783.40-6.28L786.08-3.20Q784.64-1.48 782.44-0.60Q780.24 0.28 777.48 0.28L777.48 0.28Q773.96 0.28 771.28-1.12Q768.60-2.52 767.14-5.02Q765.68-7.52 765.68-10.68L765.68-10.68Q765.68-13.80 767.10-16.30Q768.52-18.80 771.04-20.20Q773.56-21.60 776.72-21.60L776.72-21.60Q779.84-21.60 782.30-20.22Q784.76-18.84 786.14-16.34Q787.52-13.84 787.52-10.56L787.52-10.56ZM776.72-17.60Q774.32-17.60 772.66-16.18Q771.00-14.76 770.64-12.40L770.64-12.40L782.76-12.40Q782.44-14.72 780.80-16.16Q779.16-17.60 776.72-17.60L776.72-17.60Z M814.92 0.40Q811.68 0.40 808.66-0.52Q805.64-1.44 803.88-2.96L803.88-2.96L805.68-7Q807.40-5.64 809.90-4.78Q812.40-3.92 814.92-3.92L814.92-3.92Q818.04-3.92 819.58-4.92Q821.12-5.92 821.12-7.56L821.12-7.56Q821.12-8.76 820.26-9.54Q819.40-10.32 818.08-10.76Q816.76-11.20 814.48-11.76L814.48-11.76Q811.28-12.52 809.30-13.28Q807.32-14.04 805.90-15.66Q804.48-17.28 804.48-20.04L804.48-20.04Q804.48-22.36 805.74-24.26Q807.00-26.16 809.54-27.28Q812.08-28.40 815.76-28.40L815.76-28.40Q818.32-28.40 820.80-27.76Q823.28-27.12 825.08-25.92L825.08-25.92L823.44-21.88Q821.60-22.96 819.60-23.52Q817.60-24.08 815.72-24.08L815.72-24.08Q812.64-24.08 811.14-23.04Q809.64-22 809.64-20.28L809.64-20.28Q809.64-19.08 810.50-18.32Q811.36-17.56 812.68-17.12Q814.00-16.68 816.28-16.12L816.28-16.12Q819.40-15.40 821.40-14.62Q823.40-13.84 824.82-12.24Q826.24-10.64 826.24-7.92L826.24-7.92Q826.24-5.60 824.98-3.72Q823.72-1.84 821.16-0.72Q818.60 0.40 814.92 0.40L814.92 0.40Z M843.56-4.72L844.96-1.16Q844.08-0.44 842.82-0.08Q841.56 0.28 840.16 0.28L840.16 0.28Q836.64 0.28 834.72-1.56Q832.80-3.40 832.80-6.92L832.80-6.92L832.80-17.20L829.28-17.20L829.28-21.20L832.80-21.20L832.80-26.08L837.80-26.08L837.80-21.20L843.52-21.20L843.52-17.20L837.80-17.20L837.80-7.04Q837.80-5.48 838.56-4.66Q839.32-3.84 840.76-3.84L840.76-3.84Q842.44-3.84 843.56-4.72L843.56-4.72Z M865.08-21.36L869.88-21.36L859.88 1.72Q858.48 5.20 856.48 6.62Q854.48 8.04 851.64 8.04L851.64 8.04Q850.04 8.04 848.48 7.52Q846.92 7 845.92 6.08L845.92 6.08L847.92 2.40Q848.64 3.08 849.62 3.48Q850.60 3.88 851.60 3.88L851.60 3.88Q852.92 3.88 853.78 3.20Q854.64 2.52 855.36 0.92L855.36 0.92L855.72 0.08L846.40-21.36L851.60-21.36L858.32-5.56L865.08-21.36Z M874.20 0L874.20-29.68L879.20-29.68L879.20 0L874.20 0Z M907.04-10.56Q907.04-10.04 906.96-9.08L906.96-9.08L890.20-9.08Q890.64-6.72 892.50-5.34Q894.36-3.96 897.12-3.96L897.12-3.96Q900.64-3.96 902.92-6.28L902.92-6.28L905.60-3.20Q904.16-1.48 901.96-0.60Q899.76 0.28 897.00 0.28L897.00 0.28Q893.48 0.28 890.80-1.12Q888.12-2.52 886.66-5.02Q885.20-7.52 885.20-10.68L885.20-10.68Q885.20-13.80 886.62-16.30Q888.04-18.80 890.56-20.20Q893.08-21.60 896.24-21.60L896.24-21.60Q899.36-21.60 901.82-20.22Q904.28-18.84 905.66-16.34Q907.04-13.84 907.04-10.56L907.04-10.56ZM896.24-17.60Q893.84-17.60 892.18-16.18Q890.52-14.76 890.16-12.40L890.16-12.40L902.28-12.40Q901.96-14.72 900.32-16.16Q898.68-17.60 896.24-17.60L896.24-17.60Z"/></g>
</svg>
</g><g opacity="1" transform="rotate(0 1141.5611 648.8463)">
<svg width="387.0509" height="70" x="1141.5611" y="648.8463" version="1.1" preserveAspectRatio="none" viewBox="0.84 -32.16 222.72 40.28">
  <g transform="matrix(1 0 0 1 0 0)" class="companyName"><path id="id-D6z1nYkh9" d="M12.64 0.56Q9.24 0.56 6.04-0.28Q2.84-1.12 0.84-2.52L0.84-2.52L3.44-8.36Q5.32-7.12 7.80-6.36Q10.28-5.60 12.68-5.60L12.68-5.60Q17.24-5.60 17.24-7.88L17.24-7.88Q17.24-9.08 15.94-9.66Q14.64-10.24 11.76-10.88L11.76-10.88Q8.60-11.56 6.48-12.34Q4.36-13.12 2.84-14.84Q1.32-16.56 1.32-19.48L1.32-19.48Q1.32-22.04 2.72-24.10Q4.12-26.16 6.90-27.36Q9.68-28.56 13.72-28.56L13.72-28.56Q16.48-28.56 19.16-27.94Q21.84-27.32 23.88-26.12L23.88-26.12L21.44-20.24Q17.44-22.40 13.68-22.40L13.68-22.40Q11.32-22.40 10.24-21.70Q9.16-21 9.16-19.88L9.16-19.88Q9.16-18.76 10.44-18.20Q11.72-17.64 14.56-17.04L14.56-17.04Q17.76-16.36 19.86-15.58Q21.96-14.80 23.50-13.10Q25.04-11.40 25.04-8.48L25.04-8.48Q25.04-5.96 23.64-3.92Q22.24-1.88 19.44-0.66Q16.64 0.56 12.64 0.56L12.64 0.56Z M42.44-22.04Q46.48-22.04 48.94-19.64Q51.40-17.24 51.40-12.40L51.40-12.40L51.40 0L43.80 0L43.80-11.16Q43.80-15.60 40.24-15.60L40.24-15.60Q38.28-15.60 37.10-14.32Q35.92-13.04 35.92-10.48L35.92-10.48L35.92 0L28.32 0L28.32-29.68L35.92-29.68L35.92-19.68Q37.16-20.84 38.84-21.44Q40.52-22.04 42.44-22.04L42.44-22.04Z M67.36 0.36Q63.88 0.36 61.08-1.08Q58.28-2.52 56.70-5.08Q55.12-7.64 55.12-10.88L55.12-10.88Q55.12-14.08 56.70-16.64Q58.28-19.20 61.06-20.62Q63.84-22.04 67.36-22.04L67.36-22.04Q70.88-22.04 73.68-20.62Q76.48-19.20 78.04-16.66Q79.60-14.12 79.60-10.88L79.60-10.88Q79.60-7.64 78.04-5.08Q76.48-2.52 73.68-1.08Q70.88 0.36 67.36 0.36L67.36 0.36ZM67.36-5.68Q69.36-5.68 70.64-7.06Q71.92-8.44 71.92-10.88L71.92-10.88Q71.92-13.28 70.64-14.64Q69.36-16 67.36-16L67.36-16Q65.36-16 64.08-14.64Q62.80-13.28 62.80-10.88L62.80-10.88Q62.80-8.44 64.08-7.06Q65.36-5.68 67.36-5.68L67.36-5.68Z M96.76-22.04Q99.72-22.04 102.14-20.66Q104.56-19.28 105.98-16.74Q107.40-14.20 107.40-10.84L107.40-10.84Q107.40-7.48 105.98-4.94Q104.56-2.40 102.14-1.02Q99.72 0.36 96.76 0.36L96.76 0.36Q92.96 0.36 90.72-1.92L90.72-1.92L90.72 7.76L83.12 7.76L83.12-21.68L90.36-21.68L90.36-19.52Q92.48-22.04 96.76-22.04L96.76-22.04ZM95.16-5.68Q97.16-5.68 98.44-7.06Q99.72-8.44 99.72-10.84L99.72-10.84Q99.72-13.24 98.44-14.62Q97.16-16 95.16-16L95.16-16Q93.16-16 91.88-14.62Q90.60-13.24 90.60-10.84L90.60-10.84Q90.60-8.44 91.88-7.06Q93.16-5.68 95.16-5.68L95.16-5.68Z M119.20-21.36L119.20-20.88L124.36-20.88L124.36-15.20L119.40-15.20L119.40 0L111.80 0L111.80-15.20L108.64-15.20L108.64-20.88L111.80-20.88L111.80-21.44Q111.80-25.40 114.18-27.72Q116.56-30.04 120.84-30.04L120.84-30.04Q122.28-30.04 123.64-29.76Q125-29.48 125.88-28.92L125.88-28.92L124-23.56Q122.88-24.20 121.72-24.20L121.72-24.20Q120.52-24.20 119.86-23.48Q119.20-22.76 119.20-21.36L119.20-21.36ZM130.36 0L130.36-21.68L137.96-21.68L137.96 0L130.36 0ZM134.16-24.08Q132.08-24.08 130.80-25.24Q129.52-26.40 129.52-28.12L129.52-28.12Q129.52-29.84 130.80-31Q132.08-32.16 134.16-32.16L134.16-32.16Q136.24-32.16 137.52-31.06Q138.80-29.96 138.80-28.24L138.80-28.24Q138.80-26.44 137.52-25.26Q136.24-24.08 134.16-24.08L134.16-24.08Z M157-22.04Q161.04-22.04 163.50-19.64Q165.96-17.24 165.96-12.40L165.96-12.40L165.96 0L158.36 0L158.36-11.16Q158.36-15.60 154.80-15.60L154.80-15.60Q152.84-15.60 151.66-14.32Q150.48-13.04 150.48-10.48L150.48-10.48L150.48 0L142.88 0L142.88-21.68L150.12-21.68L150.12-19.32Q151.40-20.64 153.16-21.34Q154.92-22.04 157-22.04L157-22.04Z M170.72 0L170.72-21.68L178.32-21.68L178.32 0L170.72 0ZM174.52-24.08Q172.44-24.08 171.16-25.24Q169.88-26.40 169.88-28.12L169.88-28.12Q169.88-29.84 171.16-31Q172.44-32.16 174.52-32.16L174.52-32.16Q176.60-32.16 177.88-31.06Q179.16-29.96 179.16-28.24L179.16-28.24Q179.16-26.44 177.88-25.26Q176.60-24.08 174.52-24.08L174.52-24.08Z M196.32-6.20L198.20-0.88Q197.24-0.28 195.86 0.04Q194.48 0.36 192.92 0.36L192.92 0.36Q188.68 0.36 186.40-1.72Q184.12-3.80 184.12-7.92L184.12-7.92L184.12-15.20L180.96-15.20L180.96-20.88L184.12-20.88L184.12-26.52L191.72-26.52L191.72-20.88L196.68-20.88L196.68-15.20L191.72-15.20L191.72-8Q191.72-6.84 192.34-6.18Q192.96-5.52 194-5.52L194-5.52Q195.32-5.52 196.32-6.20L196.32-6.20Z M216.32-21.68L223.56-21.68L214.20 0.88Q212.56 4.88 210.20 6.50Q207.84 8.12 204.44 8.12L204.44 8.12Q202.72 8.12 200.98 7.58Q199.24 7.04 198.16 6.16L198.16 6.16L200.80 0.84Q201.44 1.44 202.34 1.78Q203.24 2.12 204.16 2.12L204.16 2.12Q205.24 2.12 205.94 1.68Q206.64 1.24 207.12 0.28L207.12 0.28L197.84-21.68L205.64-21.68L210.96-8.44L216.32-21.68Z"/></g>
</svg>
</g></svg></svg>